<svg width="400" height="400" viewBox="0 0 400 400" xmlns="http://www.w3.org/2000/svg">
  <defs>
    <linearGradient id="apJar" x1="0%" y1="0%" x2="100%" y2="0%">
      <stop offset="0%" stop-color="#fdfaf2"/>
      <stop offset="50%" stop-color="#f3ead2"/>
      <stop offset="100%" stop-color="#e3d6b4"/>
    </linearGradient>
    <linearGradient id="apGold" x1="0%" y1="0%" x2="100%" y2="0%">
      <stop offset="0%" stop-color="#b5811f"/>
      <stop offset="50%" stop-color="#e8b84b"/>
      <stop offset="100%" stop-color="#b5811f"/>
    </linearGradient>
  </defs>
  <rect width="400" height="400" fill="#f5efe0"/>
  <circle cx="66" cy="330" r="80" fill="#e9e0c4" opacity="0.7"/>
  <!-- amla fruits -->
  <g>
    <circle cx="318" cy="92" r="26" fill="#a8c25a"/>
    <path d="M 318 66 v 52 M 296 79 l 44 26 M 296 105 l 44 -26" stroke="#8ba63f" stroke-width="2" opacity="0.7"/>
    <circle cx="352" cy="120" r="18" fill="#b7cf6d"/>
    <path d="M 352 102 v 36" stroke="#94ad48" stroke-width="1.6" opacity="0.7"/>
  </g>
  <!-- powder heap -->
  <path d="M 36 322 q 56 -30 108 0 q -54 15 -108 0 Z" fill="#a78f5f"/>
  <!-- jar -->
  <ellipse cx="220" cy="330" rx="98" ry="14" fill="#c6ba92" opacity="0.5"/>
  <rect x="144" y="118" width="152" height="212" rx="18" fill="url(#apJar)" stroke="#d3c5a0" stroke-width="1.5"/>
  <rect x="138" y="94" width="164" height="34" rx="10" fill="#4a2e1e"/>
  <rect x="138" y="94" width="164" height="10" rx="5" fill="#5f4130"/>
  <!-- label -->
  <rect x="160" y="164" width="120" height="126" rx="8" fill="#ffffff" stroke="#e3d6b4" stroke-width="1.5"/>
  <circle cx="220" cy="176" r="9" fill="#a8c25a"/>
  <text x="220" y="212" text-anchor="middle" font-family="Georgia,serif" font-size="14" font-weight="700" fill="#1f3d2b">YAMUNA</text>
  <text x="220" y="228" text-anchor="middle" font-family="Arial,sans-serif" font-size="8" letter-spacing="3" fill="#8a5a1e">ORGANIC</text>
  <rect x="180" y="238" width="80" height="1.5" fill="url(#apGold)"/>
  <text x="220" y="258" text-anchor="middle" font-family="Arial,sans-serif" font-size="11" font-weight="700" fill="#6d5a17">AMLA</text>
  <text x="220" y="274" text-anchor="middle" font-family="Arial,sans-serif" font-size="8.5" fill="#7d7460">FRUIT POWDER · 100 g</text>
</svg>
