<svg width="400" height="400" viewBox="0 0 400 400" xmlns="http://www.w3.org/2000/svg">
  <defs>
    <linearGradient id="mpJar" x1="0%" y1="0%" x2="100%" y2="0%">
      <stop offset="0%" stop-color="#fdfaf2"/>
      <stop offset="50%" stop-color="#f3ead2"/>
      <stop offset="100%" stop-color="#e3d6b4"/>
    </linearGradient>
    <linearGradient id="mpGold" x1="0%" y1="0%" x2="100%" y2="0%">
      <stop offset="0%" stop-color="#b5811f"/>
      <stop offset="50%" stop-color="#e8b84b"/>
      <stop offset="100%" stop-color="#b5811f"/>
    </linearGradient>
  </defs>
  <rect width="400" height="400" fill="#f2eedd"/>
  <circle cx="330" cy="80" r="85" fill="#e5e0c2" opacity="0.7"/>
  <!-- moringa leaves -->
  <g fill="#3d7a2b">
    <ellipse cx="90" cy="92" rx="9" ry="14"/>
    <ellipse cx="112" cy="72" rx="9" ry="14" transform="rotate(30 112 72)"/>
    <ellipse cx="70" cy="70" rx="9" ry="14" transform="rotate(-30 70 70)"/>
    <ellipse cx="92" cy="56" rx="9" ry="14" transform="rotate(8 92 56)"/>
    <rect x="88" y="96" width="3" height="34" rx="1.5" fill="#2e5c20"/>
  </g>
  <!-- powder heap -->
  <path d="M 250 322 q 60 -34 116 0 q -58 16 -116 0 Z" fill="#5f8f3e"/>
  <path d="M 262 318 q 46 -22 92 0" fill="none" stroke="#4a7530" stroke-width="3" opacity="0.6"/>
  <!-- jar -->
  <ellipse cx="180" cy="330" rx="98" ry="14" fill="#c6ba92" opacity="0.5"/>
  <rect x="104" y="118" width="152" height="212" rx="18" fill="url(#mpJar)" stroke="#d3c5a0" stroke-width="1.5"/>
  <rect x="98" y="94" width="164" height="34" rx="10" fill="#1f3d2b"/>
  <rect x="98" y="94" width="164" height="10" rx="5" fill="#33543f"/>
  <!-- label -->
  <rect x="120" y="164" width="120" height="126" rx="8" fill="#ffffff" stroke="#e3d6b4" stroke-width="1.5"/>
  <path d="M 180 186 C 174 179, 174 170, 180 164 C 186 170, 186 179, 180 186 Z" fill="#5aab35"/>
  <text x="180" y="212" text-anchor="middle" font-family="Georgia,serif" font-size="14" font-weight="700" fill="#1f3d2b">YAMUNA</text>
  <text x="180" y="228" text-anchor="middle" font-family="Arial,sans-serif" font-size="8" letter-spacing="3" fill="#8a5a1e">ORGANIC</text>
  <rect x="140" y="238" width="80" height="1.5" fill="url(#mpGold)"/>
  <text x="180" y="258" text-anchor="middle" font-family="Arial,sans-serif" font-size="11" font-weight="700" fill="#3c6b2c">MORINGA</text>
  <text x="180" y="274" text-anchor="middle" font-family="Arial,sans-serif" font-size="8.5" fill="#7d7460">LEAF POWDER · 100 g</text>
</svg>
