<svg width="400" height="400" viewBox="0 0 400 400" xmlns="http://www.w3.org/2000/svg">
  <defs>
    <linearGradient id="tsBar" x1="0%" y1="0%" x2="100%" y2="100%">
      <stop offset="0%" stop-color="#e9b658"/>
      <stop offset="55%" stop-color="#d99f35"/>
      <stop offset="100%" stop-color="#b57e1e"/>
    </linearGradient>
    <linearGradient id="tsGold" x1="0%" y1="0%" x2="100%" y2="0%">
      <stop offset="0%" stop-color="#b5811f"/>
      <stop offset="50%" stop-color="#e8b84b"/>
      <stop offset="100%" stop-color="#b5811f"/>
    </linearGradient>
  </defs>
  <rect width="400" height="400" fill="#f7efdc"/>
  <circle cx="72" cy="80" r="85" fill="#eee0bd" opacity="0.6"/>
  <circle cx="340" cy="330" r="75" fill="#eee0bd" opacity="0.6"/>
  <!-- turmeric root shapes -->
  <g fill="#c98a2b" opacity="0.9">
    <path d="M 300 96 q 26 -8 38 12 q -8 20 -32 16 q -18 -4 -6 -28 Z"/>
    <path d="M 70 300 q -22 12 -12 32 q 22 6 32 -12 q 8 -18 -20 -20 Z"/>
  </g>
  <!-- soap bar -->
  <ellipse cx="200" cy="292" rx="128" ry="18" fill="#cdbd90" opacity="0.55"/>
  <rect x="82" y="140" width="236" height="140" rx="26" fill="url(#tsBar)"/>
  <rect x="82" y="140" width="236" height="26" rx="13" fill="#ffffff" opacity="0.2"/>
  <!-- wrap band -->
  <rect x="150" y="128" width="100" height="164" fill="#fbf6e8"/>
  <rect x="150" y="128" width="100" height="164" fill="none" stroke="#dccf9f" stroke-width="1.5"/>
  <text x="200" y="188" text-anchor="middle" font-family="Georgia,serif" font-size="15" font-weight="700" fill="#1f3d2b">YAMUNA</text>
  <text x="200" y="206" text-anchor="middle" font-family="Arial,sans-serif" font-size="9" letter-spacing="3" fill="#8a5a1e">ORGANIC</text>
  <rect x="166" y="218" width="68" height="1.6" fill="url(#tsGold)"/>
  <text x="200" y="240" text-anchor="middle" font-family="Arial,sans-serif" font-size="10" font-weight="600" fill="#a06a10">TURMERIC · SANDAL</text>
  <text x="200" y="257" text-anchor="middle" font-family="Arial,sans-serif" font-size="8.5" fill="#7d7460">HANDMADE SOAP</text>
  <circle cx="200" cy="146" r="7" fill="#d99f35"/>
</svg>
